SymCharSource-Regular.ufo
<glyph name="five" format="2">
  <advance width="1139"/>
  <unicode hex="0035"/>
  <outline>
    <contour>
      <point x="1041" y="485" type="curve" smooth="yes"/>
      <point x="1041" y="760"/>
      <point x="841" y="941"/>
      <point x="598" y="941" type="curve" smooth="yes"/>
      <point x="467" y="941"/>
      <point x="370" y="908"/>
      <point x="307" y="842" type="curve"/>
      <point x="402" y="1308" type="line"/>
      <point x="977" y="1308" type="line"/>
      <point x="977" y="1450" type="line"/>
      <point x="270" y="1450" type="line"/>
      <point x="125" y="691" type="line"/>
      <point x="271" y="670" type="line"/>
      <point x="346" y="785"/>
      <point x="438" y="808"/>
      <point x="562" y="808" type="curve" smooth="yes"/>
      <point x="677" y="808"/>
      <point x="730" y="772"/>
      <point x="788" y="714" type="curve" smooth="yes"/>
      <point x="847" y="654"/>
      <point x="882" y="569"/>
      <point x="882" y="465" type="curve" smooth="yes"/>
      <point x="882" y="253"/>
      <point x="734" y="98"/>
      <point x="553" y="98" type="curve" smooth="yes"/>
      <point x="396" y="98"/>
      <point x="287" y="209"/>
      <point x="258" y="374" type="curve"/>
      <point x="110" y="354" type="line"/>
      <point x="118" y="132"/>
      <point x="336" y="-20"/>
      <point x="549" y="-20" type="curve" smooth="yes"/>
      <point x="842" y="-20"/>
      <point x="1041" y="197"/>
    </contour>
  </outline>
</glyph>
<glyph name="six" format="2">
  <advance width="1139"/>
  <unicode hex="0036"/>
  <outline>
    <contour>
      <point x="1025" y="465" type="curve"/>
      <point x="1008" y="763"/>
      <point x="869" y="920"/>
      <point x="610" y="935" type="curve"/>
      <point x="434" y="928"/>
      <point x="314" y="860"/>
      <point x="251" y="731" type="curve"/>
      <point x="251" y="1130"/>
      <point x="360" y="1344"/>
      <point x="601" y="1344" type="curve" smooth="yes"/>
      <point x="746" y="1344"/>
      <point x="835" y="1263"/>
      <point x="867" y="1100" type="curve"/>
      <point x="871" y="1100"/>
      <point x="876" y="1099"/>
      <point x="880" y="1099" type="curve" smooth="yes"/>
      <point x="919" y="1099"/>
      <point x="957" y="1112"/>
      <point x="1000" y="1136" type="curve"/>
      <point x="936" y="1354"/>
      <point x="813" y="1463"/>
      <point x="630" y="1463" type="curve" smooth="yes"/>
      <point x="280" y="1463"/>
      <point x="97" y="1225"/>
      <point x="89" y="690" type="curve"/>
      <point x="92" y="213"/>
      <point x="255" y="-20"/>
      <point x="582" y="-20" type="curve"/>
      <point x="858" y="-7"/>
      <point x="1006" y="155"/>
    </contour>
    <contour>
      <point x="871" y="452" type="curve"/>
      <point x="850" y="235"/>
      <point x="756" y="119"/>
      <point x="591" y="106" type="curve"/>
      <point x="402" y="134"/>
      <point x="300" y="254"/>
      <point x="287" y="465" type="curve"/>
      <point x="294" y="669"/>
      <point x="391" y="781"/>
      <point x="579" y="801" type="curve"/>
      <point x="770" y="789"/>
      <point x="867" y="673"/>
    </contour>
  </outline>
</glyph>
<glyph name="semicolon" format="2">
  <advance width="569"/>
  <unicode hex="003B"/>
  <outline>
    <contour>
      <point x="394" y="1038" type="line"/>
      <point x="202" y="1038" type="line"/>
      <point x="202" y="847" type="line"/>
      <point x="394" y="847" type="line"/>
    </contour>
    <contour>
      <point x="394" y="192" type="line"/>
      <point x="202" y="192" type="line"/>
      <point x="202" y="0" type="line"/>
      <point x="298" y="0" type="line"/>
      <point x="298" y="-56" type="line"/>
      <point x="279" y="-99"/>
      <point x="270" y="-167"/>
      <point x="186" y="-207" type="curve"/>
      <point x="207" y="-236"/>
      <point x="207" y="-231"/>
      <point x="234" y="-279" type="curve"/>
      <point x="352" y="-207"/>
      <point x="357" y="-195"/>
      <point x="394" y="-63" type="curve"/>
    </contour>
  </outline>
</glyph>
<glyph name="C" format="2">
  <advance width="1479"/>
  <unicode hex="0043"/>
  <outline>
    <contour>
      <point x="1344" y="1054" type="line"/>
      <point x="1267" y="1335"/>
      <point x="1084" y="1470"/>
      <point x="791" y="1470" type="curve"/>
      <point x="352" y="1459"/>
      <point x="126" y="1215"/>
      <point x="113" y="736" type="curve"/>
      <point x="116" y="243"/>
      <point x="338" y="-9"/>
      <point x="779" y="-20" type="curve"/>
      <point x="1096" y="-13"/>
      <point x="1285" y="143"/>
      <point x="1344" y="446" type="curve"/>
      <point x="1187" y="479" type="line"/>
      <point x="1136" y="236"/>
      <point x="995" y="114"/>
      <point x="766" y="114" type="curve"/>
      <point x="435" y="129"/>
      <point x="280" y="332"/>
      <point x="280" y="724" type="curve"/>
      <point x="285" y="1117"/>
      <point x="451" y="1317"/>
      <point x="779" y="1324" type="curve"/>
      <point x="992" y="1323"/>
      <point x="1127" y="1222"/>
      <point x="1185" y="1020" type="curve"/>
    </contour>
  </outline>
</glyph>
<glyph name="K" format="2">
  <advance width="1366"/>
  <unicode hex="004B"/>
  <outline>
    <contour>
      <point x="712" y="856" type="line"/>
      <point x="1307" y="1450" type="line"/>
      <point x="1095" y="1450" type="line"/>
      <point x="337" y="692" type="line"/>
      <point x="337" y="1450" type="line"/>
      <point x="162" y="1450" type="line"/>
      <point x="162" y="0" type="line"/>
      <point x="335" y="0" type="line"/>
      <point x="335" y="479" type="line"/>
      <point x="585" y="729" type="line"/>
      <point x="1095" y="0" type="line"/>
      <point x="1307" y="0" type="line"/>
    </contour>
  </outline>
</glyph>
<glyph name="M" format="2">
  <advance width="1706"/>
  <unicode hex="004D"/>
  <outline>
    <contour>
      <point x="1536" y="1450" type="line"/>
      <point x="1260" y="1450" type="line"/>
      <point x="849" y="169" type="line"/>
      <point x="438" y="1450" type="line"/>
      <point x="162" y="1450" type="line"/>
      <point x="162" y="0" type="line"/>
      <point x="328" y="0" type="line"/>
      <point x="328" y="1225" type="line"/>
      <point x="348" y="1228" type="line"/>
      <point x="759" y="0" type="line"/>
      <point x="939" y="0" type="line"/>
      <point x="1350" y="1228" type="line"/>
      <point x="1370" y="1225" type="line"/>
      <point x="1370" y="0" type="line"/>
      <point x="1536" y="0" type="line"/>
    </contour>
  </outline>
</glyph>
<glyph name="R" format="2">
  <advance width="1479"/>
  <unicode hex="0052"/>
  <outline>
    <contour>
      <point x="1432" y="0" type="line"/>
      <point x="1399" y="51"/>
      <point x="1340" y="145"/>
      <point x="1252" y="290" type="curve" smooth="yes"/>
      <point x="1153" y="451"/>
      <point x="1100" y="521"/>
      <point x="1015" y="582" type="curve"/>
      <point x="985" y="601"/>
      <point x="941" y="631"/>
      <point x="941" y="635" type="curve" smooth="yes"/>
      <point x="941" y="648"/>
      <point x="981" y="668"/>
      <point x="1060" y="696" type="curve" smooth="yes"/>
      <point x="1245" y="761"/>
      <point x="1326" y="872"/>
      <point x="1326" y="1051" type="curve" smooth="yes"/>
      <point x="1326" y="1295"/>
      <point x="1156" y="1450"/>
      <point x="912" y="1450" type="curve" smooth="yes"/>
      <point x="178" y="1450" type="line"/>
      <point x="178" y="0" type="line"/>
      <point x="346" y="0" type="line"/>
      <point x="346" y="648" type="line"/>
      <point x="658" y="648" type="line" smooth="yes"/>
      <point x="739" y="648"/>
      <point x="798" y="625"/>
      <point x="928" y="450" type="curve"/>
      <point x="995" y="355"/>
      <point x="1171" y="86"/>
      <point x="1220" y="0" type="curve"/>
    </contour>
    <contour>
      <point x="1141" y="1051" type="curve" smooth="yes"/>
      <point x="1141" y="909"/>
      <point x="1006" y="798"/>
      <point x="846" y="798" type="curve" smooth="yes"/>
      <point x="354" y="798" type="line"/>
      <point x="354" y="1308" type="line"/>
      <point x="897" y="1308" type="line"/>
      <point x="1105" y="1239"/>
      <point x="1141" y="1199"/>
    </contour>
  </outline>
</glyph>
<glyph name="backslash" format="2">
  <advance width="569"/>
  <unicode hex="005C"/>
  <outline>
    <contour>
      <point x="138" y="1470" type="line"/>
      <point x="18" y="1470" type="line"/>
      <point x="450" y="-20" type="line"/>
      <point x="569" y="-20" type="line"/>
    </contour>
  </outline>
</glyph>
<glyph name="c" format="2">
  <advance width="1024"/>
  <unicode hex="0063"/>
  <outline>
    <contour>
      <point x="977" y="348" type="curve"/>
      <point x="951" y="353"/>
      <point x="884" y="372"/>
      <point x="857" y="380" type="curve"/>
      <point x="797" y="203"/>
      <point x="698" y="108"/>
      <point x="557" y="108" type="curve" smooth="yes"/>
      <point x="377" y="108"/>
      <point x="241" y="297"/>
      <point x="241" y="516" type="curve" smooth="yes"/>
      <point x="241" y="743"/>
      <point x="372" y="948"/>
      <point x="549" y="948" type="curve" smooth="yes"/>
      <point x="681" y="948"/>
      <point x="761" y="864"/>
      <point x="849" y="707" type="curve"/>
      <point x="854" y="709"/>
      <point x="928" y="730"/>
      <point x="961" y="755" type="curve"/>
      <point x="881" y="952"/>
      <point x="721" y="1074"/>
      <point x="545" y="1074" type="curve" smooth="yes"/>
      <point x="298" y="1074"/>
      <point x="113" y="816"/>
      <point x="113" y="516" type="curve" smooth="yes"/>
      <point x="113" y="225"/>
      <point x="302" y="-20"/>
      <point x="553" y="-20" type="curve" smooth="yes"/>
      <point x="761" y="-20"/>
      <point x="909" y="109"/>
    </contour>
  </outline>
</glyph>
<glyph name="e" format="2">
  <advance width="1139"/>
  <unicode hex="0065"/>
  <outline>
    <contour>
      <point x="1025" y="603" type="line"/>
      <point x="1025" y="860"/>
      <point x="828" y="1074"/>
      <point x="565" y="1074" type="curve" smooth="yes"/>
      <point x="428" y="1074"/>
      <point x="318" y="1013"/>
      <point x="238" y="909" type="curve" smooth="yes"/>
      <point x="198" y="857"/>
      <point x="167" y="798"/>
      <point x="146" y="731" type="curve" smooth="yes"/>
      <point x="124" y="663"/>
      <point x="113" y="598"/>
      <point x="113" y="537" type="curve" smooth="yes"/>
      <point x="113" y="357"/>
      <point x="168" y="232"/>
      <point x="256" y="136" type="curve" smooth="yes"/>
      <point x="299" y="89"/>
      <point x="345" y="51"/>
      <point x="393" y="22" type="curve" smooth="yes"/>
      <point x="440" y="-6"/>
      <point x="497" y="-20"/>
      <point x="565" y="-20" type="curve" smooth="yes"/>
      <point x="777" y="-20"/>
      <point x="956" y="92"/>
      <point x="1009" y="284" type="curve"/>
      <point x="972" y="297"/>
      <point x="936" y="311"/>
      <point x="897" y="324" type="curve"/>
      <point x="854" y="184"/>
      <point x="713" y="108"/>
      <point x="565" y="108" type="curve" smooth="yes"/>
      <point x="392" y="108"/>
      <point x="250" y="268"/>
      <point x="250" y="467" type="curve"/>
      <point x="1025" y="467" type="line"/>
    </contour>
    <contour>
      <point x="250" y="603" type="line"/>
      <point x="250" y="775"/>
      <point x="392" y="940"/>
      <point x="565" y="940" type="curve" smooth="yes"/>
      <point x="754" y="940"/>
      <point x="889" y="787"/>
      <point x="889" y="603" type="curve"/>
    </contour>
  </outline>
</glyph>
<glyph name="q" format="2">
  <advance width="1139"/>
  <unicode hex="0071"/>
  <outline>
    <contour>
      <point x="961" y="1054" type="line"/>
      <point x="825" y="1054" type="line"/>
      <point x="825" y="929" type="line"/>
      <point x="757" y="1021"/>
      <point x="654" y="1074"/>
      <point x="541" y="1074" type="curve" smooth="yes"/>
      <point x="297" y="1074"/>
      <point x="105" y="814"/>
      <point x="105" y="520" type="curve" smooth="yes"/>
      <point x="105" y="231"/>
      <point x="290" y="-20"/>
      <point x="541" y="-20" type="curve" smooth="yes"/>
      <point x="650" y="-20"/>
      <point x="744" y="27"/>
      <point x="825" y="108" type="curve"/>
      <point x="825" y="-410" type="line"/>
      <point x="961" y="-410" type="line"/>
    </contour>
    <contour>
      <point x="825" y="520" type="curve" smooth="yes"/>
      <point x="825" y="303"/>
      <point x="708" y="116"/>
      <point x="541" y="116" type="curve" smooth="yes"/>
      <point x="383" y="116"/>
      <point x="241" y="303"/>
      <point x="241" y="520" type="curve" smooth="yes"/>
      <point x="241" y="733"/>
      <point x="372" y="940"/>
      <point x="541" y="940" type="curve" smooth="yes"/>
      <point x="711" y="940"/>
      <point x="825" y="755"/>
    </contour>
  </outline>
</glyph>
<glyph name="braceright" format="2">
  <advance width="684"/>
  <unicode hex="007D"/>
  <outline>
    <contour>
      <point x="625" y="602" type="line"/>
      <point x="508" y="618"/>
      <point x="419" y="702"/>
      <point x="419" y="805" type="curve" smooth="yes"/>
      <point x="419" y="1063" type="line" smooth="yes"/>
      <point x="419" y="1330"/>
      <point x="369" y="1406"/>
      <point x="197" y="1465" type="curve"/>
      <point x="66" y="1465" type="line"/>
      <point x="66" y="1340" type="line"/>
      <point x="226" y="1340"/>
      <point x="273" y="1298"/>
      <point x="273" y="1184" type="curve" smooth="yes"/>
      <point x="273" y="878" type="line" smooth="yes"/>
      <point x="273" y="689"/>
      <point x="349" y="627"/>
      <point x="480" y="528" type="curve"/>
      <point x="303" y="423"/>
      <point x="273" y="345"/>
      <point x="273" y="127" type="curve" smooth="yes"/>
      <point x="273" y="-115" type="line" smooth="yes"/>
      <point x="273" y="-239"/>
      <point x="218" y="-279"/>
      <point x="66" y="-279" type="curve"/>
      <point x="66" y="-404" type="line"/>
      <point x="197" y="-404" type="line"/>
      <point x="366" y="-348"/>
      <point x="419" y="-272"/>
      <point x="419" y="-107" type="curve" smooth="yes"/>
      <point x="419" y="232" type="line" smooth="yes"/>
      <point x="419" y="368"/>
      <point x="497" y="467"/>
      <point x="625" y="467" type="curve"/>
    </contour>
  </outline>
</glyph>
<glyph name="questiondown" format="2">
  <advance width="897"/>
  <unicode hex="00BF"/>
  <outline>
    <contour>
      <point x="407" y="969" type="line"/>
      <point x="407" y="853"/>
      <point x="399" y="824"/>
      <point x="367" y="782" type="curve" smooth="yes"/>
      <point x="354" y="765"/>
      <point x="332" y="740"/>
      <point x="300" y="709" type="curve" smooth="yes"/>
      <point x="212" y="623" type="line" smooth="yes"/>
      <point x="153" y="566"/>
      <point x="111" y="515"/>
      <point x="86" y="468" type="curve" smooth="yes"/>
      <point x="62" y="423"/>
      <point x="50" y="375"/>
      <point x="50" y="324" type="curve" smooth="yes"/>
      <point x="50" y="112"/>
      <point x="214" y="-29"/>
      <point x="458" y="-29" type="curve" smooth="yes"/>
      <point x="593" y="-29"/>
      <point x="723" y="9"/>
      <point x="847" y="84" type="curve"/>
      <point x="847" y="272" type="line"/>
      <point x="718" y="183"/>
      <point x="597" y="135"/>
      <point x="493" y="135" type="curve" smooth="yes"/>
      <point x="348" y="135"/>
      <point x="253" y="215"/>
      <point x="253" y="334" type="curve" smooth="yes"/>
      <point x="253" y="399"/>
      <point x="285" y="458"/>
      <point x="362" y="530" type="curve"/>
      <point x="452" y="618" type="line" smooth="yes"/>
      <point x="512" y="676"/>
      <point x="551" y="727"/>
      <point x="569" y="770" type="curve"/>
      <point x="588" y="812"/>
      <point x="597" y="867"/>
      <point x="597" y="936" type="curve" smooth="yes"/>
      <point x="597" y="1092" type="line"/>
      <point x="407" y="1092" type="line"/>
    </contour>
    <contour>
      <point x="603" y="1493" type="line"/>
      <point x="407" y="1493" type="line"/>
      <point x="407" y="1239" type="line"/>
      <point x="603" y="1239" type="line"/>
    </contour>
  </outline>
</glyph>
<glyph name="enter" format="2">
  <advance width="2026"/>
  <unicode hex="E005"/>
  <outline>
    <contour>
      <point x="1964" y="427" type="curve" smooth="yes"/>
      <point x="1972" y="445"/>
      <point x="1976" y="464"/>
      <point x="1976" y="484" type="curve" smooth="yes"/>
      <point x="1976" y="1298" type="line" smooth="yes"/>
      <point x="1976" y="1379"/>
      <point x="1911" y="1445"/>
      <point x="1831" y="1445" type="curve" smooth="yes"/>
      <point x="1673" y="1445" type="line" smooth="yes"/>
      <point x="1592" y="1445"/>
      <point x="1526" y="1379"/>
      <point x="1526" y="1298" type="curve" smooth="yes"/>
      <point x="1526" y="824" type="line"/>
      <point x="883" y="824" type="line"/>
      <point x="883" y="1122" type="line" smooth="yes"/>
      <point x="883" y="1202"/>
      <point x="816" y="1267"/>
      <point x="736" y="1267" type="curve" smooth="yes"/>
      <point x="697" y="1267"/>
      <point x="661" y="1252"/>
      <point x="633" y="1224" type="curve" smooth="yes"/>
      <point x="93" y="684" type="line" smooth="yes"/>
      <point x="66" y="657"/>
      <point x="50" y="621"/>
      <point x="50" y="582" type="curve" smooth="yes"/>
      <point x="50" y="540"/>
      <point x="64" y="505"/>
      <point x="93" y="478" type="curve"/>
      <point x="633" y="-62" type="line" smooth="yes"/>
      <point x="661" y="-91"/>
      <point x="697" y="-106"/>
      <point x="736" y="-106" type="curve" smooth="yes"/>
      <point x="818" y="-106"/>
      <point x="883" y="-38"/>
      <point x="883" y="41" type="curve" smooth="yes"/>
      <point x="883" y="338" type="line"/>
      <point x="1830" y="338" type="line" smooth="yes"/>
      <point x="1891" y="338"/>
      <point x="1941" y="375"/>
    </contour>
    <contour>
      <point x="1686" y="665" type="line"/>
      <point x="1686" y="1285" type="line"/>
      <point x="1817" y="1285" type="line"/>
      <point x="1817" y="497" type="line"/>
      <point x="737" y="497" type="line" smooth="yes"/>
      <point x="728" y="497"/>
      <point x="723" y="493"/>
      <point x="723" y="484" type="curve" smooth="yes"/>
      <point x="723" y="72" type="line"/>
      <point x="215" y="582" type="line"/>
      <point x="723" y="1090" type="line"/>
      <point x="723" y="678" type="line" smooth="yes"/>
      <point x="723" y="669"/>
      <point x="728" y="665"/>
      <point x="737" y="665" type="curve" smooth="yes"/>
    </contour>
  </outline>
</glyph>
<glyph name="send" format="2">
  <advance width="1204"/>
  <unicode hex="E00E"/>
  <outline>
    <contour>
      <point x="50" y="258" type="line"/>
      <point x="1122" y="761" type="line" smooth="yes"/>
      <point x="1140" y="769"/>
      <point x="1154" y="778"/>
      <point x="1154" y="785" type="curve" smooth="yes"/>
      <point x="1154" y="792"/>
      <point x="1140" y="800"/>
      <point x="1121" y="809" type="curve" smooth="yes"/>
      <point x="50" y="1304" type="line"/>
    </contour>
    <contour>
      <point x="182" y="495" type="line"/>
      <point x="182" y="667" type="line"/>
      <point x="522" y="780" type="line" smooth="yes"/>
      <point x="525" y="781"/>
      <point x="528" y="783"/>
      <point x="528" y="785" type="curve" smooth="yes"/>
      <point x="528" y="787"/>
      <point x="525" y="789"/>
      <point x="522" y="790" type="curve" smooth="yes"/>
      <point x="182" y="897" type="line"/>
      <point x="182" y="1068" type="line"/>
      <point x="831" y="785" type="line"/>
    </contour>
  </outline>
</glyph>
<glyph name="lowercase" format="2">
  <advance width="2397"/>
  <unicode hex="E011"/>
  <outline>
    <contour>
      <point x="549" y="486" type="line"/>
      <point x="540" y="479" type="line" smooth="yes"/>
      <point x="479" y="426"/>
      <point x="418" y="371"/>
      <point x="331" y="371" type="curve" smooth="yes"/>
      <point x="236" y="371"/>
      <point x="188" y="396"/>
      <point x="188" y="446" type="curve" smooth="yes"/>
      <point x="188" y="563"/>
      <point x="282" y="552"/>
      <point x="549" y="613" type="curve"/>
    </contour>
    <contour>
      <point x="1414" y="643" type="curve" smooth="yes"/>
      <point x="1414" y="498"/>
      <point x="1330" y="371"/>
      <point x="1216" y="371" type="curve" smooth="yes"/>
      <point x="1107" y="371"/>
      <point x="1031" y="494"/>
      <point x="1031" y="643" type="curve" smooth="yes"/>
      <point x="1031" y="788"/>
      <point x="1111" y="928"/>
      <point x="1216" y="928" type="curve" smooth="yes"/>
      <point x="1327" y="928"/>
      <point x="1414" y="796"/>
    </contour>
    <contour>
      <point x="2333" y="537" type="line"/>
      <point x="2312" y="542"/>
      <point x="2257" y="561"/>
      <point x="2240" y="561" type="curve" smooth="yes"/>
      <point x="2232" y="561"/>
      <point x="2224" y="555"/>
      <point x="2221" y="547" type="curve" smooth="yes"/>
      <point x="2181" y="428"/>
      <point x="2115" y="364"/>
      <point x="2023" y="364" type="curve" smooth="yes"/>
      <point x="1903" y="364"/>
      <point x="1813" y="491"/>
      <point x="1813" y="639" type="curve" smooth="yes"/>
      <point x="1813" y="795"/>
      <point x="1900" y="933"/>
      <point x="2017" y="933" type="curve" smooth="yes"/>
      <point x="2103" y="933"/>
      <point x="2156" y="877"/>
      <point x="2217" y="768" type="curve" smooth="yes"/>
      <point x="2221" y="761"/>
      <point x="2227" y="758"/>
      <point x="2234" y="758" type="curve" smooth="yes"/>
      <point x="2239" y="758"/>
      <point x="2244" y="760"/>
      <point x="2248" y="764" type="curve"/>
      <point x="2249" y="763" type="line"/>
      <point x="2267" y="763"/>
      <point x="2335" y="789"/>
      <point x="2335" y="816" type="curve" smooth="yes"/>
      <point x="2335" y="818"/>
      <point x="2335" y="820"/>
      <point x="2334" y="821" type="curve" smooth="yes"/>
      <point x="2275" y="971"/>
      <point x="2149" y="1065"/>
      <point x="2014" y="1065" type="curve" smooth="yes"/>
      <point x="1821" y="1065"/>
      <point x="1681" y="867"/>
      <point x="1681" y="639" type="curve" smooth="yes"/>
      <point x="1681" y="419"/>
      <point x="1825" y="231"/>
      <point x="2020" y="231" type="curve" smooth="yes"/>
      <point x="2180" y="231"/>
      <point x="2294" y="329"/>
      <point x="2347" y="512" type="curve"/>
    </contour>
    <contour>
      <point x="727" y="287" type="line"/>
      <point x="710" y="338"/>
      <point x="699" y="402"/>
      <point x="688" y="503" type="curve"/>
      <point x="688" y="849" type="line" smooth="yes"/>
      <point x="688" y="967"/>
      <point x="549" y="1065"/>
      <point x="403" y="1065" type="curve" smooth="yes"/>
      <point x="255" y="1065"/>
      <point x="76" y="935"/>
      <point x="63" y="804" type="curve" smooth="yes"/>
      <point x="63" y="802" type="line" smooth="yes"/>
      <point x="63" y="791"/>
      <point x="70" y="783"/>
      <point x="81" y="782" type="curve" smooth="yes"/>
      <point x="137" y="777"/>
      <point x="140" y="770"/>
      <point x="166" y="765" type="curve"/>
      <point x="170" y="765" type="line" smooth="yes"/>
      <point x="179" y="765"/>
      <point x="186" y="770"/>
      <point x="189" y="779" type="curve" smooth="yes"/>
      <point x="220" y="879"/>
      <point x="297" y="934"/>
      <point x="401" y="934" type="curve" smooth="yes"/>
      <point x="474" y="934"/>
      <point x="523" y="900"/>
      <point x="555" y="835" type="curve"/>
      <point x="555" y="750" type="line"/>
      <point x="542" y="749"/>
      <point x="528" y="745"/>
      <point x="480" y="734" type="curve"/>
      <point x="480" y="735" type="line"/>
      <point x="468" y="731"/>
      <point x="258" y="689"/>
      <point x="252" y="689" type="curve"/>
      <point x="113" y="658"/>
      <point x="50" y="574"/>
      <point x="50" y="438" type="curve" smooth="yes"/>
      <point x="50" y="295"/>
      <point x="135" y="231"/>
      <point x="331" y="231" type="curve" smooth="yes"/>
      <point x="426" y="231"/>
      <point x="496" y="256"/>
      <point x="573" y="328" type="curve"/>
      <point x="575" y="316"/>
      <point x="596" y="231"/>
      <point x="621" y="231" type="curve" smooth="yes"/>
      <point x="630" y="231"/>
      <point x="678" y="249"/>
      <point x="702" y="257" type="curve" smooth="yes"/>
      <point x="715" y="261" type="line"/>
    </contour>
    <contour>
      <point x="1553" y="643" type="curve" smooth="yes"/>
      <point x="1553" y="872"/>
      <point x="1407" y="1065"/>
      <point x="1216" y="1065" type="curve" smooth="yes"/>
      <point x="1144" y="1065"/>
      <point x="1090" y="1045"/>
      <point x="1029" y="993" type="curve"/>
      <point x="1029" y="1319" type="line" smooth="yes"/>
      <point x="1029" y="1330"/>
      <point x="1020" y="1339"/>
      <point x="1009" y="1339" type="curve" smooth="yes"/>
      <point x="913" y="1339" type="line" smooth="yes"/>
      <point x="902" y="1339"/>
      <point x="893" y="1330"/>
      <point x="893" y="1319" type="curve" smooth="yes"/>
      <point x="893" y="266" type="line" smooth="yes"/>
      <point x="893" y="255"/>
      <point x="902" y="246"/>
      <point x="913" y="246" type="curve" smooth="yes"/>
      <point x="1009" y="246" type="line" smooth="yes"/>
      <point x="1020" y="246"/>
      <point x="1029" y="255"/>
      <point x="1029" y="266" type="curve" smooth="yes"/>
      <point x="1029" y="305" type="line"/>
      <point x="1089" y="256"/>
      <point x="1144" y="231"/>
      <point x="1216" y="231" type="curve" smooth="yes"/>
      <point x="1409" y="231"/>
      <point x="1553" y="416"/>
    </contour>
  </outline>
</glyph>
<glyph name="symbols" format="2">
  <advance width="2121"/>
  <unicode hex="E015"/>
  <outline>
    <contour>
      <point x="2071" y="1324" type="line"/>
      <point x="2071" y="1335"/>
      <point x="2062" y="1344"/>
      <point x="2051" y="1344" type="curve" smooth="yes"/>
      <point x="1907" y="1344" type="line" smooth="yes"/>
      <point x="1896" y="1344"/>
      <point x="1887" y="1335"/>
      <point x="1887" y="1324" type="curve" smooth="yes"/>
      <point x="1887" y="1144" type="line" smooth="yes"/>
      <point x="1887" y="1133"/>
      <point x="1896" y="1124"/>
      <point x="1907" y="1124" type="curve" smooth="yes"/>
      <point x="2051" y="1124" type="line" smooth="yes"/>
      <point x="2062" y="1124"/>
      <point x="2071" y="1133"/>
      <point x="2071" y="1144" type="curve" smooth="yes"/>
    </contour>
    <contour>
      <point x="1411" y="1324" type="line"/>
      <point x="1411" y="1335"/>
      <point x="1402" y="1344"/>
      <point x="1391" y="1344" type="curve" smooth="yes"/>
      <point x="1247" y="1344" type="line" smooth="yes"/>
      <point x="1236" y="1344"/>
      <point x="1227" y="1335"/>
      <point x="1227" y="1324" type="curve" smooth="yes"/>
      <point x="1227" y="1144" type="line" smooth="yes"/>
      <point x="1227" y="1133"/>
      <point x="1236" y="1124"/>
      <point x="1247" y="1124" type="curve" smooth="yes"/>
      <point x="1391" y="1124" type="line" smooth="yes"/>
      <point x="1402" y="1124"/>
      <point x="1411" y="1133"/>
      <point x="1411" y="1144" type="curve" smooth="yes"/>
    </contour>
    <contour>
      <point x="791" y="872" type="line"/>
      <point x="791" y="884"/>
      <point x="783" y="893"/>
      <point x="772" y="893" type="curve" smooth="yes"/>
      <point x="767" y="893"/>
      <point x="761" y="890"/>
      <point x="756" y="885" type="curve" smooth="yes"/>
      <point x="713" y="836"/>
      <point x="646" y="798"/>
      <point x="600" y="798" type="curve" smooth="yes"/>
      <point x="513" y="798"/>
      <point x="356" y="906"/>
      <point x="256" y="906" type="curve" smooth="yes"/>
      <point x="139" y="906"/>
      <point x="50" y="833"/>
      <point x="50" y="797" type="curve" smooth="yes"/>
      <point x="50" y="675" type="line" smooth="yes"/>
      <point x="50" y="662"/>
      <point x="58" y="654"/>
      <point x="69" y="654" type="curve" smooth="yes"/>
      <point x="75" y="654"/>
      <point x="80" y="656"/>
      <point x="84" y="661" type="curve" smooth="yes"/>
      <point x="148" y="726"/>
      <point x="189" y="748"/>
      <point x="241" y="748" type="curve" smooth="yes"/>
      <point x="296" y="748"/>
      <point x="346" y="724"/>
      <point x="398" y="697" type="curve"/>
      <point x="455" y="669"/>
      <point x="512" y="640"/>
      <point x="580" y="640" type="curve" smooth="yes"/>
      <point x="678" y="640"/>
      <point x="716" y="656"/>
      <point x="785" y="725" type="curve" smooth="yes"/>
      <point x="788" y="728"/>
      <point x="791" y="736"/>
      <point x="791" y="739" type="curve" smooth="yes"/>
    </contour>
    <contour>
      <point x="2071" y="731" type="line"/>
      <point x="2057" y="984" type="line" smooth="yes"/>
      <point x="2056" y="997"/>
      <point x="2049" y="1003"/>
      <point x="2037" y="1003" type="curve" smooth="yes"/>
      <point x="1922" y="1003" type="line" smooth="yes"/>
      <point x="1911" y="1003"/>
      <point x="1903" y="995"/>
      <point x="1902" y="984" type="curve" smooth="yes"/>
      <point x="1887" y="731" type="line"/>
      <point x="1887" y="267" type="line" smooth="yes"/>
      <point x="1887" y="256"/>
      <point x="1896" y="247"/>
      <point x="1907" y="247" type="curve" smooth="yes"/>
      <point x="2051" y="247" type="line" smooth="yes"/>
      <point x="2062" y="247"/>
      <point x="2071" y="256"/>
      <point x="2071" y="267" type="curve" smooth="yes"/>
    </contour>
    <contour>
      <point x="1232" y="952" type="line"/>
      <point x="1232" y="904"/>
      <point x="1228" y="881"/>
      <point x="1224" y="862" type="curve"/>
      <point x="1224" y="863" type="line"/>
      <point x="1217" y="842"/>
      <point x="1207" y="823"/>
      <point x="1163" y="782" type="curve" smooth="yes"/>
      <point x="1100" y="722" type="line" smooth="yes"/>
      <point x="1013" y="638"/>
      <point x="980" y="573"/>
      <point x="980" y="496" type="curve" smooth="yes"/>
      <point x="980" y="336"/>
      <point x="1105" y="227"/>
      <point x="1289" y="227" type="curve" smooth="yes"/>
      <point x="1388" y="227"/>
      <point x="1483" y="254"/>
      <point x="1574" y="309" type="curve" smooth="yes"/>
      <point x="1579" y="312"/>
      <point x="1584" y="321"/>
      <point x="1584" y="326" type="curve" smooth="yes"/>
      <point x="1584" y="459" type="line" smooth="yes"/>
      <point x="1584" y="471"/>
      <point x="1576" y="479"/>
      <point x="1565" y="479" type="curve" smooth="yes"/>
      <point x="1560" y="479"/>
      <point x="1556" y="478"/>
      <point x="1553" y="475" type="curve"/>
      <point x="1465" y="415"/>
      <point x="1385" y="382"/>
      <point x="1314" y="382" type="curve" smooth="yes"/>
      <point x="1222" y="382"/>
      <point x="1164" y="431"/>
      <point x="1164" y="503" type="curve" smooth="yes"/>
      <point x="1164" y="543"/>
      <point x="1185" y="578"/>
      <point x="1234" y="627" type="curve" smooth="yes"/>
      <point x="1298" y="691" type="line" smooth="yes"/>
      <point x="1381" y="774"/>
      <point x="1407" y="828"/>
      <point x="1407" y="930" type="curve" smooth="yes"/>
      <point x="1407" y="1040" type="line" smooth="yes"/>
      <point x="1407" y="1051"/>
      <point x="1398" y="1060"/>
      <point x="1387" y="1060" type="curve" smooth="yes"/>
      <point x="1252" y="1060" type="line" smooth="yes"/>
      <point x="1241" y="1060"/>
      <point x="1232" y="1051"/>
      <point x="1232" y="1040" type="curve" smooth="yes"/>
    </contour>
  </outline>
</glyph>
<glyph name="search" format="2">
  <advance width="2090"/>
  <unicode hex="E016"/>
  <outline>
    <contour>
      <point x="249" y="789" type="curve" smooth="yes"/>
      <point x="249" y="1228"/>
      <point x="606" y="1585"/>
      <point x="1045" y="1585" type="curve" smooth="yes"/>
      <point x="1484" y="1585"/>
      <point x="1841" y="1228"/>
      <point x="1841" y="789" type="curve" smooth="yes"/>
      <point x="1841" y="350"/>
      <point x="1484" y="-7"/>
      <point x="1045" y="-7" type="curve" smooth="yes"/>
      <point x="606" y="-7"/>
      <point x="249" y="350"/>
    </contour>
    <contour>
      <point x="50" y="789" type="curve" smooth="yes"/>
      <point x="50" y="238"/>
      <point x="495" y="-206"/>
      <point x="1045" y="-206" type="curve" smooth="yes"/>
      <point x="1594" y="-206"/>
      <point x="2040" y="239"/>
      <point x="2040" y="789" type="curve" smooth="yes"/>
      <point x="2040" y="1338"/>
      <point x="1594" y="1784"/>
      <point x="1045" y="1784" type="curve" smooth="yes"/>
      <point x="494" y="1784"/>
      <point x="50" y="1338"/>
    </contour>
  </outline>
</glyph>
<glyph name="download" format="2">
  <advance width="1485"/>
  <unicode hex="E035"/>
  <outline>
    <contour>
      <point x="446" y="1027" type="line"/>
      <point x="446" y="583" type="line"/>
      <point x="50" y="583" type="line"/>
      <point x="742" y="100" type="line"/>
      <point x="1435" y="583" type="line"/>
      <point x="1039" y="583" type="line"/>
      <point x="1039" y="1027" type="line"/>
    </contour>
    <contour>
      <point x="446" y="1290" type="line"/>
      <point x="446" y="1085" type="line"/>
      <point x="1039" y="1085" type="line"/>
      <point x="1039" y="1290" type="line"/>
    </contour>
    <contour>
      <point x="56" y="50" type="line"/>
      <point x="56" y="-85" type="line"/>
      <point x="1429" y="-85" type="line"/>
      <point x="1429" y="50" type="line"/>
    </contour>
    <contour>
      <point x="446" y="1480" type="line"/>
      <point x="446" y="1345" type="line"/>
      <point x="1039" y="1345" type="line"/>
      <point x="1039" y="1480" type="line"/>
    </contour>
    <contour>
      <point x="446" y="1590" type="line"/>
      <point x="446" y="1535" type="line"/>
      <point x="1039" y="1535" type="line"/>
      <point x="1039" y="1590" type="line"/>
    </contour>
  </outline>
</glyph>
<glyph name="facebook_1" format="2">
  <advance width="2090"/>
  <unicode hex="E043"/>
  <outline>
    <contour>
      <point x="688" y="1052" type="line"/>
      <point x="844" y="1052" type="line"/>
      <point x="844" y="1132" type="line" smooth="yes"/>
      <point x="844" y="1305"/>
      <point x="867" y="1378"/>
      <point x="982" y="1439" type="curve" smooth="yes"/>
      <point x="1033" y="1467"/>
      <point x="1099" y="1481"/>
      <point x="1181" y="1481" type="curve" smooth="yes"/>
      <point x="1262" y="1481"/>
      <point x="1344" y="1468"/>
      <point x="1426" y="1443" type="curve"/>
      <point x="1387" y="1246" type="line"/>
      <point x="1334" y="1259"/>
      <point x="1288" y="1265"/>
      <point x="1249" y="1265" type="curve" smooth="yes"/>
      <point x="1175" y="1265"/>
      <point x="1145" y="1235"/>
      <point x="1145" y="1127" type="curve" smooth="yes"/>
      <point x="1145" y="1052" type="line"/>
      <point x="1385" y="1052" type="line"/>
      <point x="1365" y="841" type="line"/>
      <point x="1145" y="841" type="line"/>
      <point x="1145" y="20" type="line"/>
      <point x="844" y="20" type="line"/>
      <point x="844" y="841" type="line"/>
      <point x="688" y="841" type="line"/>
    </contour>
    <contour>
      <point x="50" y="789" type="curve" smooth="yes"/>
      <point x="50" y="238"/>
      <point x="495" y="-206"/>
      <point x="1045" y="-206" type="curve" smooth="yes"/>
      <point x="1594" y="-206"/>
      <point x="2040" y="239"/>
      <point x="2040" y="789" type="curve" smooth="yes"/>
      <point x="2040" y="1338"/>
      <point x="1594" y="1784"/>
      <point x="1045" y="1784" type="curve" smooth="yes"/>
      <point x="494" y="1784"/>
      <point x="50" y="1338"/>
    </contour>
  </outline>
</glyph>
<glyph name="left_alt" format="2">
  <advance width="2446"/>
  <unicode hex="E056"/>
  <outline>
    <contour>
      <point x="1184" y="1033" type="line"/>
      <point x="1193" y="1060"/>
      <point x="1204" y="1082"/>
      <point x="1215" y="1114" type="curve"/>
      <point x="1230" y="1086"/>
      <point x="1236" y="1058"/>
      <point x="1243" y="1033" type="curve"/>
      <point x="1366" y="698" type="line"/>
      <point x="1062" y="698" type="line"/>
    </contour>
    <contour>
      <point x="1883" y="1312" type="line"/>
      <point x="1883" y="1323"/>
      <point x="1874" y="1332"/>
      <point x="1863" y="1332" type="curve" smooth="yes"/>
      <point x="1770" y="1332" type="line" smooth="yes"/>
      <point x="1759" y="1332"/>
      <point x="1750" y="1323"/>
      <point x="1750" y="1312" type="curve" smooth="yes"/>
      <point x="1750" y="258" type="line" smooth="yes"/>
      <point x="1750" y="247"/>
      <point x="1759" y="238"/>
      <point x="1770" y="238" type="curve" smooth="yes"/>
      <point x="1863" y="238" type="line" smooth="yes"/>
      <point x="1874" y="238"/>
      <point x="1883" y="247"/>
      <point x="1883" y="258" type="curve" smooth="yes"/>
    </contour>
    <contour>
      <point x="2396" y="283" type="line"/>
      <point x="2386" y="308"/>
      <point x="2377" y="338"/>
      <point x="2368" y="373" type="curve" smooth="yes"/>
      <point x="2366" y="383"/>
      <point x="2360" y="388"/>
      <point x="2349" y="388" type="curve" smooth="yes"/>
      <point x="2346" y="388"/>
      <point x="2344" y="388"/>
      <point x="2343" y="387" type="curve"/>
      <point x="2314" y="379"/>
      <point x="2295" y="374"/>
      <point x="2270" y="374" type="curve" smooth="yes"/>
      <point x="2237" y="374"/>
      <point x="2217" y="389"/>
      <point x="2217" y="420" type="curve" smooth="yes"/>
      <point x="2217" y="927" type="line"/>
      <point x="2343" y="927" type="line" smooth="yes"/>
      <point x="2354" y="927"/>
      <point x="2363" y="936"/>
      <point x="2363" y="947" type="curve" smooth="yes"/>
      <point x="2363" y="1039" type="line" smooth="yes"/>
      <point x="2363" y="1050"/>
      <point x="2354" y="1059"/>
      <point x="2343" y="1059" type="curve" smooth="yes"/>
      <point x="2217" y="1059" type="line"/>
      <point x="2217" y="1239" type="line" smooth="yes"/>
      <point x="2217" y="1250"/>
      <point x="2208" y="1259"/>
      <point x="2197" y="1259" type="curve" smooth="yes"/>
      <point x="2104" y="1259" type="line" smooth="yes"/>
      <point x="2093" y="1259"/>
      <point x="2084" y="1250"/>
      <point x="2084" y="1239" type="curve" smooth="yes"/>
      <point x="2084" y="1059" type="line"/>
      <point x="2000" y="1059" type="line" smooth="yes"/>
      <point x="1989" y="1059"/>
      <point x="1980" y="1050"/>
      <point x="1980" y="1039" type="curve" smooth="yes"/>
      <point x="1980" y="947" type="line" smooth="yes"/>
      <point x="1980" y="936"/>
      <point x="1989" y="927"/>
      <point x="2000" y="927" type="curve" smooth="yes"/>
      <point x="2084" y="927" type="line"/>
      <point x="2084" y="409" type="line" smooth="yes"/>
      <point x="2084" y="295"/>
      <point x="2143" y="238"/>
      <point x="2261" y="238" type="curve" smooth="yes"/>
      <point x="2293" y="238"/>
      <point x="2324" y="243"/>
      <point x="2355" y="250" type="curve" smooth="yes"/>
      <point x="2381" y="255" type="line"/>
    </contour>
    <contour>
      <point x="873" y="238" type="line"/>
      <point x="880" y="238"/>
      <point x="889" y="244"/>
      <point x="892" y="251" type="curve" smooth="yes"/>
      <point x="1010" y="563" type="line"/>
      <point x="1418" y="563" type="line"/>
      <point x="1536" y="251" type="line" smooth="yes"/>
      <point x="1539" y="244"/>
      <point x="1548" y="238"/>
      <point x="1555" y="238" type="curve" smooth="yes"/>
      <point x="1689" y="238" type="line" smooth="yes"/>
      <point x="1702" y="238"/>
      <point x="1709" y="244"/>
      <point x="1709" y="257" type="curve" smooth="yes"/>
      <point x="1709" y="260"/>
      <point x="1708" y="263"/>
      <point x="1707" y="264" type="curve" smooth="yes"/>
      <point x="1309" y="1319" type="line" smooth="yes"/>
      <point x="1306" y="1326"/>
      <point x="1297" y="1332"/>
      <point x="1290" y="1332" type="curve" smooth="yes"/>
      <point x="1138" y="1332" type="line" smooth="yes"/>
      <point x="1131" y="1332"/>
      <point x="1122" y="1326"/>
      <point x="1119" y="1319" type="curve" smooth="yes"/>
      <point x="721" y="265" type="line" smooth="yes"/>
      <point x="720" y="263"/>
      <point x="720" y="260"/>
      <point x="720" y="257" type="curve" smooth="yes"/>
      <point x="720" y="244"/>
      <point x="727" y="238"/>
      <point x="740" y="238" type="curve" smooth="yes"/>
    </contour>
    <contour>
      <point x="676" y="373" type="line"/>
      <point x="215" y="373" type="line"/>
      <point x="215" y="1332" type="line"/>
      <point x="50" y="1332" type="line"/>
      <point x="50" y="238" type="line"/>
      <point x="676" y="238" type="line"/>
    </contour>
  </outline>
</glyph>
<glyph name="right_alt" format="2">
  <advance width="2576"/>
  <unicode hex="E057"/>
  <outline>
    <contour>
      <point x="1314" y="1033" type="line"/>
      <point x="1323" y="1060"/>
      <point x="1334" y="1082"/>
      <point x="1345" y="1114" type="curve"/>
      <point x="1360" y="1086"/>
      <point x="1366" y="1058"/>
      <point x="1373" y="1033" type="curve"/>
      <point x="1496" y="698" type="line"/>
      <point x="1192" y="698" type="line"/>
    </contour>
    <contour>
      <point x="2013" y="1312" type="line"/>
      <point x="2013" y="1323"/>
      <point x="2004" y="1332"/>
      <point x="1993" y="1332" type="curve" smooth="yes"/>
      <point x="1900" y="1332" type="line" smooth="yes"/>
      <point x="1889" y="1332"/>
      <point x="1880" y="1323"/>
      <point x="1880" y="1312" type="curve" smooth="yes"/>
      <point x="1880" y="258" type="line" smooth="yes"/>
      <point x="1880" y="247"/>
      <point x="1889" y="238"/>
      <point x="1900" y="238" type="curve" smooth="yes"/>
      <point x="1993" y="238" type="line" smooth="yes"/>
      <point x="2004" y="238"/>
      <point x="2013" y="247"/>
      <point x="2013" y="258" type="curve" smooth="yes"/>
    </contour>
    <contour>
      <point x="2526" y="283" type="line"/>
      <point x="2516" y="308"/>
      <point x="2507" y="338"/>
      <point x="2498" y="373" type="curve" smooth="yes"/>
      <point x="2496" y="383"/>
      <point x="2490" y="388"/>
      <point x="2479" y="388" type="curve" smooth="yes"/>
      <point x="2476" y="388"/>
      <point x="2474" y="388"/>
      <point x="2473" y="387" type="curve"/>
      <point x="2444" y="379"/>
      <point x="2425" y="374"/>
      <point x="2400" y="374" type="curve" smooth="yes"/>
      <point x="2367" y="374"/>
      <point x="2347" y="389"/>
      <point x="2347" y="420" type="curve" smooth="yes"/>
      <point x="2347" y="927" type="line"/>
      <point x="2473" y="927" type="line" smooth="yes"/>
      <point x="2484" y="927"/>
      <point x="2493" y="936"/>
      <point x="2493" y="947" type="curve" smooth="yes"/>
      <point x="2493" y="1039" type="line" smooth="yes"/>
      <point x="2493" y="1050"/>
      <point x="2484" y="1059"/>
      <point x="2473" y="1059" type="curve" smooth="yes"/>
      <point x="2347" y="1059" type="line"/>
      <point x="2347" y="1239" type="line" smooth="yes"/>
      <point x="2347" y="1250"/>
      <point x="2338" y="1259"/>
      <point x="2327" y="1259" type="curve" smooth="yes"/>
      <point x="2234" y="1259" type="line" smooth="yes"/>
      <point x="2223" y="1259"/>
      <point x="2214" y="1250"/>
      <point x="2214" y="1239" type="curve" smooth="yes"/>
      <point x="2214" y="1059" type="line"/>
      <point x="2130" y="1059" type="line" smooth="yes"/>
      <point x="2119" y="1059"/>
      <point x="2110" y="1050"/>
      <point x="2110" y="1039" type="curve" smooth="yes"/>
      <point x="2110" y="947" type="line" smooth="yes"/>
      <point x="2110" y="936"/>
      <point x="2119" y="927"/>
      <point x="2130" y="927" type="curve" smooth="yes"/>
      <point x="2214" y="927" type="line"/>
      <point x="2214" y="409" type="line" smooth="yes"/>
      <point x="2214" y="295"/>
      <point x="2273" y="238"/>
      <point x="2391" y="238" type="curve" smooth="yes"/>
      <point x="2423" y="238"/>
      <point x="2454" y="243"/>
      <point x="2485" y="250" type="curve" smooth="yes"/>
      <point x="2511" y="255" type="line"/>
    </contour>
    <contour>
      <point x="1003" y="238" type="line"/>
      <point x="1010" y="238"/>
      <point x="1019" y="244"/>
      <point x="1022" y="251" type="curve" smooth="yes"/>
      <point x="1140" y="563" type="line"/>
      <point x="1548" y="563" type="line"/>
      <point x="1666" y="251" type="line" smooth="yes"/>
      <point x="1669" y="244"/>
      <point x="1678" y="238"/>
      <point x="1685" y="238" type="curve" smooth="yes"/>
      <point x="1819" y="238" type="line" smooth="yes"/>
      <point x="1832" y="238"/>
      <point x="1839" y="244"/>
      <point x="1839" y="257" type="curve" smooth="yes"/>
      <point x="1839" y="260"/>
      <point x="1838" y="263"/>
      <point x="1837" y="264" type="curve" smooth="yes"/>
      <point x="1439" y="1319" type="line" smooth="yes"/>
      <point x="1436" y="1326"/>
      <point x="1427" y="1332"/>
      <point x="1420" y="1332" type="curve" smooth="yes"/>
      <point x="1268" y="1332" type="line" smooth="yes"/>
      <point x="1261" y="1332"/>
      <point x="1252" y="1326"/>
      <point x="1249" y="1319" type="curve" smooth="yes"/>
      <point x="851" y="265" type="line" smooth="yes"/>
      <point x="850" y="263"/>
      <point x="850" y="260"/>
      <point x="850" y="257" type="curve" smooth="yes"/>
      <point x="850" y="244"/>
      <point x="857" y="238"/>
      <point x="870" y="238" type="curve" smooth="yes"/>
    </contour>
    <contour>
      <point x="846" y="238" type="line"/>
      <point x="825" y="280"/>
      <point x="799" y="335"/>
      <point x="740" y="458" type="curve" smooth="yes"/>
      <point x="673" y="598"/>
      <point x="645" y="646"/>
      <point x="611" y="678" type="curve" smooth="yes"/>
      <point x="587" y="700"/>
      <point x="555" y="735"/>
      <point x="555" y="738" type="curve" smooth="yes"/>
      <point x="555" y="747"/>
      <point x="587" y="753"/>
      <point x="645" y="774" type="curve" smooth="yes"/>
      <point x="751" y="812"/>
      <point x="796" y="906"/>
      <point x="796" y="1041" type="curve" smooth="yes"/>
      <point x="796" y="1225"/>
      <point x="667" y="1332"/>
      <point x="484" y="1332" type="curve" smooth="yes"/>
      <point x="50" y="1332" type="line"/>
      <point x="50" y="238" type="line"/>
      <point x="215" y="238" type="line"/>
      <point x="215" y="727" type="line"/>
      <point x="302" y="727" type="line" smooth="yes"/>
      <point x="363" y="727"/>
      <point x="417" y="704"/>
      <point x="486" y="578" type="curve" smooth="yes"/>
      <point x="555" y="452"/>
      <point x="619" y="303"/>
      <point x="656" y="238" type="curve"/>
    </contour>
    <contour>
      <point x="633" y="1025" type="curve" smooth="yes"/>
      <point x="633" y="918"/>
      <point x="534" y="862"/>
      <point x="414" y="862" type="curve" smooth="yes"/>
      <point x="215" y="862" type="line"/>
      <point x="215" y="1197" type="line"/>
      <point x="452" y="1197" type="line" smooth="yes"/>
      <point x="578" y="1197"/>
      <point x="633" y="1137"/>
    </contour>
  </outline>
</glyph>
<glyph name="left_alt_shift" format="2">
  <advance width="3549"/>
  <unicode hex="E067"/>
  <outline>
    <contour>
      <point x="2287" y="1033" type="line"/>
      <point x="2296" y="1060"/>
      <point x="2307" y="1082"/>
      <point x="2318" y="1114" type="curve"/>
      <point x="2333" y="1086"/>
      <point x="2339" y="1058"/>
      <point x="2346" y="1033" type="curve"/>
      <point x="2469" y="698" type="line"/>
      <point x="2165" y="698" type="line"/>
    </contour>
    <contour>
      <point x="2986" y="1312" type="line"/>
      <point x="2986" y="1323"/>
      <point x="2977" y="1332"/>
      <point x="2966" y="1332" type="curve" smooth="yes"/>
      <point x="2873" y="1332" type="line" smooth="yes"/>
      <point x="2862" y="1332"/>
      <point x="2853" y="1323"/>
      <point x="2853" y="1312" type="curve" smooth="yes"/>
      <point x="2853" y="258" type="line" smooth="yes"/>
      <point x="2853" y="247"/>
      <point x="2862" y="238"/>
      <point x="2873" y="238" type="curve" smooth="yes"/>
      <point x="2966" y="238" type="line" smooth="yes"/>
      <point x="2977" y="238"/>
      <point x="2986" y="247"/>
      <point x="2986" y="258" type="curve" smooth="yes"/>
    </contour>
    <contour>
      <point x="3499" y="283" type="line"/>
      <point x="3489" y="308"/>
      <point x="3480" y="338"/>
      <point x="3471" y="373" type="curve" smooth="yes"/>
      <point x="3469" y="383"/>
      <point x="3463" y="388"/>
      <point x="3452" y="388" type="curve" smooth="yes"/>
      <point x="3449" y="388"/>
      <point x="3447" y="388"/>
      <point x="3446" y="387" type="curve"/>
      <point x="3417" y="379"/>
      <point x="3398" y="374"/>
      <point x="3373" y="374" type="curve" smooth="yes"/>
      <point x="3340" y="374"/>
      <point x="3320" y="389"/>
      <point x="3320" y="420" type="curve" smooth="yes"/>
      <point x="3320" y="927" type="line"/>
      <point x="3446" y="927" type="line" smooth="yes"/>
      <point x="3457" y="927"/>
      <point x="3466" y="936"/>
      <point x="3466" y="947" type="curve" smooth="yes"/>
      <point x="3466" y="1039" type="line" smooth="yes"/>
      <point x="3466" y="1050"/>
      <point x="3457" y="1059"/>
      <point x="3446" y="1059" type="curve" smooth="yes"/>
      <point x="3320" y="1059" type="line"/>
      <point x="3320" y="1239" type="line" smooth="yes"/>
      <point x="3320" y="1250"/>
      <point x="3311" y="1259"/>
      <point x="3300" y="1259" type="curve" smooth="yes"/>
      <point x="3207" y="1259" type="line" smooth="yes"/>
      <point x="3196" y="1259"/>
      <point x="3187" y="1250"/>
      <point x="3187" y="1239" type="curve" smooth="yes"/>
      <point x="3187" y="1059" type="line"/>
      <point x="3103" y="1059" type="line" smooth="yes"/>
      <point x="3092" y="1059"/>
      <point x="3083" y="1050"/>
      <point x="3083" y="1039" type="curve" smooth="yes"/>
      <point x="3083" y="947" type="line" smooth="yes"/>
      <point x="3083" y="936"/>
      <point x="3092" y="927"/>
      <point x="3103" y="927" type="curve" smooth="yes"/>
      <point x="3187" y="927" type="line"/>
      <point x="3187" y="409" type="line" smooth="yes"/>
      <point x="3187" y="295"/>
      <point x="3246" y="238"/>
      <point x="3364" y="238" type="curve" smooth="yes"/>
      <point x="3396" y="238"/>
      <point x="3427" y="243"/>
      <point x="3458" y="250" type="curve" smooth="yes"/>
      <point x="3484" y="255" type="line"/>
    </contour>
    <contour>
      <point x="1976" y="238" type="line"/>
      <point x="1983" y="238"/>
      <point x="1992" y="244"/>
      <point x="1995" y="251" type="curve" smooth="yes"/>
      <point x="2113" y="563" type="line"/>
      <point x="2521" y="563" type="line"/>
      <point x="2639" y="251" type="line" smooth="yes"/>
      <point x="2642" y="244"/>
      <point x="2651" y="238"/>
      <point x="2658" y="238" type="curve" smooth="yes"/>
      <point x="2792" y="238" type="line" smooth="yes"/>
      <point x="2805" y="238"/>
      <point x="2812" y="244"/>
      <point x="2812" y="257" type="curve" smooth="yes"/>
      <point x="2812" y="260"/>
      <point x="2811" y="263"/>
      <point x="2810" y="264" type="curve" smooth="yes"/>
      <point x="2412" y="1319" type="line" smooth="yes"/>
      <point x="2409" y="1326"/>
      <point x="2400" y="1332"/>
      <point x="2393" y="1332" type="curve" smooth="yes"/>
      <point x="2241" y="1332" type="line" smooth="yes"/>
      <point x="2234" y="1332"/>
      <point x="2225" y="1326"/>
      <point x="2222" y="1319" type="curve" smooth="yes"/>
      <point x="1824" y="265" type="line" smooth="yes"/>
      <point x="1823" y="263"/>
      <point x="1823" y="260"/>
      <point x="1823" y="257" type="curve" smooth="yes"/>
      <point x="1823" y="244"/>
      <point x="1830" y="238"/>
      <point x="1843" y="238" type="curve" smooth="yes"/>
    </contour>
    <contour>
      <point x="1779" y="373" type="line"/>
      <point x="1318" y="373" type="line"/>
      <point x="1318" y="1332" type="line"/>
      <point x="1153" y="1332" type="line"/>
      <point x="1153" y="238" type="line"/>
      <point x="1779" y="238" type="line"/>
    </contour>
    <contour>
      <point x="659" y="374" type="line"/>
      <point x="495" y="374" type="line"/>
      <point x="495" y="720" type="line"/>
      <point x="198" y="720" type="line"/>
      <point x="568" y="1170" type="line"/>
      <point x="586" y="1170" type="line"/>
      <point x="956" y="720" type="line"/>
      <point x="659" y="720" type="line"/>
    </contour>
    <contour>
      <point x="661" y="1298" type="line"/>
      <point x="632" y="1326"/>
      <point x="604" y="1340"/>
      <point x="577" y="1340" type="curve" smooth="yes"/>
      <point x="549" y="1340"/>
      <point x="518" y="1328"/>
      <point x="493" y="1298" type="curve" smooth="yes"/>
      <point x="86" y="810" type="line" smooth="yes"/>
      <point x="66" y="786"/>
      <point x="50" y="751"/>
      <point x="50" y="708" type="curve" smooth="yes"/>
      <point x="50" y="617"/>
      <point x="115" y="576"/>
      <point x="169" y="576" type="curve" smooth="yes"/>
      <point x="377" y="576" type="line"/>
      <point x="377" y="382" type="line" smooth="yes"/>
      <point x="377" y="302"/>
      <point x="430" y="237"/>
      <point x="496" y="237" type="curve" smooth="yes"/>
      <point x="658" y="237" type="line" smooth="yes"/>
      <point x="723" y="237"/>
      <point x="777" y="302"/>
      <point x="777" y="382" type="curve" smooth="yes"/>
      <point x="777" y="575" type="line"/>
      <point x="984" y="575" type="line" smooth="yes"/>
      <point x="1038" y="575"/>
      <point x="1103" y="615"/>
      <point x="1103" y="708" type="curve" smooth="yes"/>
      <point x="1103" y="750"/>
      <point x="1089" y="785"/>
      <point x="1068" y="810" type="curve" smooth="yes"/>
    </contour>
  </outline>
</glyph>
<glyph name="back_rev_1" format="2">
  <advance width="2562"/>
  <unicode hex="E06A"/>
  <outline>
    <contour>
      <point x="1037" y="655" type="line"/>
      <point x="1432" y="260" type="line" smooth="yes"/>
      <point x="1434" y="258"/>
      <point x="1436" y="257"/>
      <point x="1439" y="257" type="curve" smooth="yes"/>
      <point x="1442" y="257"/>
      <point x="1444" y="258"/>
      <point x="1446" y="260" type="curve" smooth="yes"/>
      <point x="1562" y="375" type="line" smooth="yes"/>
      <point x="1564" y="377"/>
      <point x="1565" y="379"/>
      <point x="1565" y="382" type="curve" smooth="yes"/>
      <point x="1565" y="385"/>
      <point x="1564" y="387"/>
      <point x="1562" y="389" type="curve" smooth="yes"/>
      <point x="1165" y="785" type="line"/>
      <point x="1562" y="1181" type="line" smooth="yes"/>
      <point x="1564" y="1183"/>
      <point x="1565" y="1185"/>
      <point x="1565" y="1188" type="curve" smooth="yes"/>
      <point x="1565" y="1191"/>
      <point x="1564" y="1193"/>
      <point x="1562" y="1195" type="curve" smooth="yes"/>
      <point x="1446" y="1310" type="line" smooth="yes"/>
      <point x="1444" y="1312"/>
      <point x="1442" y="1313"/>
      <point x="1439" y="1313" type="curve" smooth="yes"/>
      <point x="1436" y="1313"/>
      <point x="1434" y="1312"/>
      <point x="1432" y="1310" type="curve" smooth="yes"/>
      <point x="1037" y="915" type="line"/>
      <point x="641" y="1310" type="line" smooth="yes"/>
      <point x="639" y="1312"/>
      <point x="637" y="1313"/>
      <point x="634" y="1313" type="curve" smooth="yes"/>
      <point x="631" y="1313"/>
      <point x="629" y="1312"/>
      <point x="627" y="1310" type="curve" smooth="yes"/>
      <point x="512" y="1195" type="line" smooth="yes"/>
      <point x="510" y="1193"/>
      <point x="509" y="1191"/>
      <point x="509" y="1188" type="curve" smooth="yes"/>
      <point x="509" y="1185"/>
      <point x="510" y="1183"/>
      <point x="512" y="1181" type="curve" smooth="yes"/>
      <point x="907" y="785" type="line"/>
      <point x="512" y="389" type="line" smooth="yes"/>
      <point x="510" y="387"/>
      <point x="509" y="385"/>
      <point x="509" y="382" type="curve" smooth="yes"/>
      <point x="509" y="379"/>
      <point x="510" y="377"/>
      <point x="512" y="375" type="curve" smooth="yes"/>
      <point x="627" y="260" type="line" smooth="yes"/>
      <point x="629" y="258"/>
      <point x="631" y="257"/>
      <point x="634" y="257" type="curve" smooth="yes"/>
      <point x="637" y="257"/>
      <point x="639" y="258"/>
      <point x="641" y="260" type="curve" smooth="yes"/>
    </contour>
    <contour>
      <point x="1617" y="1426" type="line"/>
      <point x="2258" y="785" type="line"/>
      <point x="1617" y="144" type="line"/>
      <point x="233" y="144" type="line"/>
      <point x="233" y="1426" type="line"/>
    </contour>
    <contour>
      <point x="50" y="-29" type="line"/>
      <point x="50" y="-36"/>
      <point x="53" y="-39"/>
      <point x="60" y="-39" type="curve" smooth="yes"/>
      <point x="1688" y="-39" type="line" smooth="yes"/>
      <point x="1691" y="-39"/>
      <point x="1693" y="-38"/>
      <point x="1695" y="-36" type="curve" smooth="yes"/>
      <point x="2509" y="778" type="line" smooth="yes"/>
      <point x="2511" y="780"/>
      <point x="2512" y="782"/>
      <point x="2512" y="785" type="curve" smooth="yes"/>
      <point x="2512" y="788"/>
      <point x="2511" y="790"/>
      <point x="2509" y="792" type="curve" smooth="yes"/>
      <point x="1695" y="1606" type="line" smooth="yes"/>
      <point x="1693" y="1608"/>
      <point x="1691" y="1609"/>
      <point x="1688" y="1609" type="curve" smooth="yes"/>
      <point x="60" y="1609" type="line" smooth="yes"/>
      <point x="53" y="1609"/>
      <point x="50" y="1606"/>
      <point x="50" y="1599" type="curve" smooth="yes"/>
    </contour>
  </outline>
</glyph>
<glyph name="wordjoiner" format="2">
  <unicode hex="E078"/>
  <outline>
    <contour>
      <point x="-376" y="-472" type="line"/>
      <point x="376" y="-472" type="line"/>
      <point x="376" y="-360" type="line"/>
      <point x="-376" y="-360" type="line"/>
    </contour>
    <contour>
      <point x="-376" y="1860" type="line"/>
      <point x="376" y="1860" type="line"/>
      <point x="376" y="1972" type="line"/>
      <point x="-376" y="1972" type="line"/>
    </contour>
    <contour>
      <point x="-56" y="-200" type="line"/>
      <point x="56" y="-200" type="line"/>
      <point x="56" y="1700" type="line"/>
      <point x="-56" y="1700" type="line"/>
    </contour>
    <contour>
      <point x="-376" y="1636" type="line"/>
      <point x="376" y="1636" type="line"/>
      <point x="376" y="1748" type="line"/>
      <point x="-376" y="1748" type="line"/>
    </contour>
    <contour>
      <point x="-376" y="-248" type="line"/>
      <point x="376" y="-248" type="line"/>
      <point x="376" y="-136" type="line"/>
      <point x="-376" y="-136" type="line"/>
    </contour>
  </outline>
</glyph>
<glyph name="zwnj" format="2">
  <unicode hex="E079"/>
  <outline>
    <component base="_part.triangleleft"/>
    <component base="_part.triangleright" xOffset="16"/>
    <contour>
      <point x="-56" y="-472" type="line"/>
      <point x="56" y="-472" type="line"/>
      <point x="56" y="1972" type="line"/>
      <point x="-56" y="1972" type="line"/>
    </contour>
  </outline>
</glyph>
<glyph name="cgj" format="2">
  <unicode hex="E07A"/>
  <outline>
    <component base="_part.zwpart" xOffset="-96" yOffset="97"/>
    <component base="_part.zwpart" xOffset="-96" yOffset="457"/>
    <component base="_part.zwpart" xOffset="-96" yOffset="817"/>
    <component base="_part.zwpart" xOffset="-96" yOffset="1177"/>
    <component base="_part.zwpart" xOffset="-96" yOffset="-263"/>
    <component base="_part.zwpart" xOffset="-96" yOffset="1537"/>
    <contour>
      <point x="-508" y="1589" type="curve"/>
      <point x="-406" y="1543" type="line"/>
      <point x="-353" y="1767"/>
      <point x="-197" y="1868"/>
      <point x="0" y="1868" type="curve" smooth="yes"/>
      <point x="197" y="1868"/>
      <point x="352" y="1767"/>
      <point x="406" y="1543" type="curve"/>
      <point x="508" y="1589" type="line"/>
      <point x="446" y="1824"/>
      <point x="266" y="1980"/>
      <point x="0" y="1980" type="curve" smooth="yes"/>
      <point x="-266" y="1980"/>
      <point x="-446" y="1824"/>
    </contour>
    <contour>
      <point x="508" y="-89" type="curve"/>
      <point x="406" y="-43" type="line"/>
      <point x="353" y="-267"/>
      <point x="197" y="-368"/>
      <point x="0" y="-368" type="curve" smooth="yes"/>
      <point x="-197" y="-368"/>
      <point x="-352" y="-267"/>
      <point x="-406" y="-43" type="curve"/>
      <point x="-508" y="-89" type="line"/>
      <point x="-446" y="-324"/>
      <point x="-266" y="-480"/>
      <point x="0" y="-480" type="curve" smooth="yes"/>
      <point x="266" y="-480"/>
      <point x="446" y="-324"/>
    </contour>
  </outline>
</glyph>
<glyph name="nbsp" format="2">
  <advance width="720"/>
  <unicode hex="E082"/>
  <outline>
    <component base="_part.dotsmall" xOffset="40"/>
    <contour>
      <point x="-16" y="650" type="line"/>
      <point x="109" y="650" type="line"/>
      <point x="360" y="1208" type="line"/>
      <point x="611" y="650" type="line"/>
      <point x="736" y="650" type="line"/>
      <point x="360" y="1454" type="line"/>
    </contour>
  </outline>
</glyph>
<glyph name="emsp" format="2">
  <advance width="2048"/>
  <unicode hex="E087"/>
  <outline>
    <component base="_part.dot" xOffset="704"/>
    <contour>
      <point x="432" y="1104" type="line"/>
      <point x="1616" y="1104" type="line"/>
      <point x="1616" y="1216" type="line"/>
      <point x="432" y="1216" type="line"/>
    </contour>
  </outline>
</glyph>
<glyph name="fourpmsp" format="2">
  <advance width="512"/>
  <unicode hex="E089"/>
  <outline>
    <component base="_part.dot" xOffset="-64"/>
    <contour>
      <point x="384" y="1309" type="line"/>
      <point x="384" y="1947" type="line"/>
      <point x="312" y="1947" type="line"/>
      <point x="52" y="1517" type="line"/>
      <point x="52" y="1433" type="line"/>
      <point x="460" y="1433" type="line"/>
      <point x="460" y="1520" type="line"/>
      <point x="159" y="1520" type="line"/>
      <point x="336" y="1817" type="line"/>
      <point x="291" y="1840" type="line"/>
      <point x="291" y="1309" type="line"/>
    </contour>
  </outline>
</glyph>
<glyph name="sixpmsp" format="2">
  <advance width="426"/>
  <unicode hex="E08A"/>
  <outline>
    <component base="_part.dot" xOffset="-107"/>
    <contour>
      <point x="213" y="1309" type="curve" smooth="yes"/>
      <point x="317" y="1309"/>
      <point x="403" y="1402"/>
      <point x="403" y="1518" type="curve" smooth="yes"/>
      <point x="403" y="1634"/>
      <point x="335" y="1716"/>
      <point x="225" y="1716" type="curve" smooth="yes"/>
      <point x="168" y="1716"/>
      <point x="114" y="1698"/>
      <point x="92" y="1673" type="curve"/>
      <point x="92" y="1580" type="line"/>
      <point x="114" y="1605"/>
      <point x="167" y="1623"/>
      <point x="212" y="1623" type="curve" smooth="yes"/>
      <point x="270" y="1623"/>
      <point x="310" y="1605"/>
      <point x="310" y="1512" type="curve" smooth="yes"/>
      <point x="310" y="1431"/>
      <point x="255" y="1402"/>
      <point x="213" y="1402" type="curve" smooth="yes"/>
      <point x="171" y="1402"/>
      <point x="116" y="1432"/>
      <point x="116" y="1601" type="curve" smooth="yes"/>
      <point x="116" y="1757"/>
      <point x="165" y="1854"/>
      <point x="286" y="1854" type="curve" smooth="yes"/>
      <point x="298" y="1854"/>
      <point x="374" y="1854"/>
      <point x="386" y="1854" type="curve"/>
      <point x="386" y="1947" type="line"/>
      <point x="374" y="1947"/>
      <point x="292" y="1947"/>
      <point x="280" y="1947" type="curve" smooth="yes"/>
      <point x="105" y="1947"/>
      <point x="23" y="1801"/>
      <point x="23" y="1597" type="curve" smooth="yes"/>
      <point x="23" y="1382"/>
      <point x="109" y="1309"/>
    </contour>
  </outline>
</glyph>
<glyph name="thinsp" format="2">
  <advance width="512"/>
  <unicode hex="E08D"/>
  <outline>
    <component base="_part.dot" xOffset="-64"/>
    <contour>
      <point x="528" y="1972" type="line"/>
      <point x="406" y="1972" type="line"/>
      <point x="256" y="1564" type="line"/>
      <point x="106" y="1972" type="line"/>
      <point x="-16" y="1972" type="line"/>
      <point x="256" y="1288" type="line"/>
    </contour>
  </outline>
</glyph>
<glyph name="_part.spacebottom" format="2">
  <advance width="640"/>
  <outline>
    <contour>
      <point x="48" y="-208" type="line"/>
      <point x="592" y="-208" type="line"/>
      <point x="592" y="-96" type="line"/>
      <point x="48" y="-96" type="line"/>
    </contour>
  </outline>
</glyph>
<glyph name="_part.zwpart" format="2">
  <advance width="192"/>
  <outline>
    <contour>
      <point x="40" y="0" type="line"/>
      <point x="152" y="0" type="line"/>
      <point x="152" y="226" type="line"/>
      <point x="40" y="226" type="line"/>
    </contour>
  </outline>
</glyph>
<glyph name="_part.zwsolid" format="2">
  <outline>
    <contour>
      <point x="-56" y="-472" type="line"/>
      <point x="56" y="-472" type="line"/>
      <point x="56" y="1856" type="line"/>
      <point x="-56" y="1856" type="line"/>
    </contour>
  </outline>
</glyph>
<glyph name="done.001" format="2">
  <advance width="1773"/>
  <outline>
    <contour>
      <point x="706" y="106" type="curve" smooth="yes"/>
      <point x="1707" y="1108" type="line" smooth="yes"/>
      <point x="1718" y="1119"/>
      <point x="1722" y="1133"/>
      <point x="1723" y="1148" type="curve" smooth="yes"/>
      <point x="1723" y="1162"/>
      <point x="1719" y="1173"/>
      <point x="1707" y="1185" type="curve" smooth="yes"/>
      <point x="1581" y="1311" type="line" smooth="yes"/>
      <point x="1570" y="1322"/>
      <point x="1558" y="1326"/>
      <point x="1543" y="1326" type="curve" smooth="yes"/>
      <point x="1529" y="1326"/>
      <point x="1516" y="1320"/>
      <point x="1505" y="1309" type="curve" smooth="yes"/>
      <point x="668" y="471" type="line"/>
      <point x="268" y="870" type="line"/>
      <point x="257" y="881"/>
      <point x="244" y="886"/>
      <point x="229" y="886" type="curve" smooth="yes"/>
      <point x="215" y="886"/>
      <point x="202" y="881"/>
      <point x="191" y="870" type="curve" smooth="yes"/>
      <point x="66" y="745" type="line" smooth="yes"/>
      <point x="55" y="734"/>
      <point x="50" y="721"/>
      <point x="50" y="706" type="curve" smooth="yes"/>
      <point x="50" y="691"/>
      <point x="55" y="678"/>
      <point x="66" y="667" type="curve" smooth="yes"/>
      <point x="629" y="106" type="line" smooth="yes"/>
      <point x="640" y="96"/>
      <point x="652" y="90"/>
      <point x="667" y="90" type="curve" smooth="yes"/>
      <point x="682" y="90"/>
      <point x="695" y="95"/>
    </contour>
    <contour>
      <point x="1668" y="1146" type="line"/>
      <point x="668" y="145" type="line"/>
      <point x="105" y="706" type="line"/>
      <point x="230" y="832" type="line"/>
      <point x="668" y="394" type="line"/>
      <point x="1543" y="1271" type="line"/>
    </contour>
  </outline>
</glyph>
<glyph name="lrisolate" format="2">
  <outline>
    <component base="lrmark"/>
    <contour>
      <point x="774" y="1204" type="line"/>
      <point x="886" y="1204" type="line"/>
      <point x="886" y="1980" type="line"/>
      <point x="774" y="1980" type="line"/>
    </contour>
  </outline>
</glyph>
<glyph name="wordjoiner.old" format="2">
  <advance width="640"/>
  <outline>
    <component base="_part.zwpart" xOffset="224"/>
    <component base="_part.zwpart" xOffset="224" yOffset="390"/>
    <component base="_part.zwpart" xOffset="224" yOffset="1560"/>
    <component base="_part.zwpart" xOffset="224" yOffset="1950"/>
    <contour>
      <point x="404" y="544" type="line"/>
      <point x="463" y="544" type="line"/>
      <point x="352" y="962" type="line"/>
      <point x="288" y="962" type="line"/>
    </contour>
    <contour>
      <point x="48" y="390" type="line"/>
      <point x="592" y="390" type="line"/>
      <point x="592" y="486" type="line"/>
      <point x="48" y="486" type="line"/>
    </contour>
    <contour>
      <point x="163" y="544" type="line"/>
      <point x="228" y="544" type="line"/>
      <point x="144" y="962" type="line"/>
      <point x="79" y="962" type="line"/>
    </contour>
    <contour>
      <point x="177" y="544" type="line"/>
      <point x="236" y="544" type="line"/>
      <point x="352" y="962" type="line"/>
      <point x="288" y="962" type="line"/>
    </contour>
    <contour>
      <point x="412" y="544" type="line"/>
      <point x="477" y="544" type="line"/>
      <point x="561" y="962" type="line"/>
      <point x="496" y="962" type="line"/>
    </contour>
    <contour>
      <point x="48" y="1020" type="line"/>
      <point x="592" y="1020" type="line"/>
      <point x="592" y="1116" type="line"/>
      <point x="48" y="1116" type="line"/>
    </contour>
  </outline>
</glyph>
<glyph name="zwj.alt2" format="2">
  <outline>
    <contour>
      <point x="-368" y="1760" type="line"/>
      <point x="358" y="1760" type="line"/>
      <point x="358" y="1856" type="line"/>
      <point x="-368" y="1856" type="line"/>
    </contour>
    <contour>
      <point x="-48" y="-470" type="line"/>
      <point x="48" y="-470" type="line"/>
      <point x="48" y="1664" type="line"/>
      <point x="-48" y="1664" type="line"/>
    </contour>
    <contour>
      <point x="-368" y="1568" type="line"/>
      <point x="358" y="1568" type="line"/>
      <point x="358" y="1664" type="line"/>
      <point x="-368" y="1664" type="line"/>
    </contour>
  </outline>
</glyph>
<glyph name="zwnj.alt2" format="2">
  <outline>
    <component base="_part.triangleright" xOffset="94"/>
    <component base="_part.triangleleft" xOffset="-94"/>
    <contour>
      <point x="0" y="1600" type="line"/>
      <point x="288" y="1600" type="line"/>
      <point x="288" y="1696" type="line"/>
      <point x="0" y="1696" type="line"/>
    </contour>
    <contour>
      <point x="-48" y="-470" type="line"/>
      <point x="48" y="-470" type="line"/>
      <point x="48" y="1696" type="line"/>
      <point x="-48" y="1696" type="line"/>
    </contour>
    <contour>
      <point x="-288" y="1600" type="line"/>
      <point x="0" y="1600" type="line"/>
      <point x="0" y="1696" type="line"/>
      <point x="-288" y="1696" type="line"/>
    </contour>
  </outline>
</glyph>
<glyph name="zwnj.alt3" format="2">
  <outline>
    <contour>
      <point x="-48" y="-470" type="line"/>
      <point x="48" y="-470" type="line"/>
      <point x="48" y="1976" type="line"/>
      <point x="-48" y="1976" type="line"/>
    </contour>
    <contour>
      <point x="-238" y="1408" type="line"/>
      <point x="-238" y="1984" type="line"/>
      <point x="-637" y="1696" type="line"/>
    </contour>
    <contour>
      <point x="238" y="1408" type="line"/>
      <point x="637" y="1696" type="line"/>
      <point x="238" y="1984" type="line"/>
    </contour>
  </outline>
</glyph>
<glyph name="zwnj.alt4" format="2">
  <outline>
    <contour>
      <point x="-434" y="1626" type="curve"/>
      <point x="-349" y="1586" type="line"/>
      <point x="-303" y="1779"/>
      <point x="-170" y="1867"/>
      <point x="0" y="1867" type="curve" smooth="yes"/>
      <point x="170" y="1867"/>
      <point x="306" y="1779"/>
      <point x="352" y="1586" type="curve"/>
      <point x="435" y="1626" type="line"/>
      <point x="382" y="1828"/>
      <point x="229" y="1963"/>
      <point x="0" y="1963" type="curve" smooth="yes"/>
      <point x="-229" y="1963"/>
      <point x="-381" y="1828"/>
    </contour>
    <contour>
      <point x="-48" y="-470" type="line"/>
      <point x="48" y="-470" type="line"/>
      <point x="48" y="1716" type="line"/>
      <point x="-48" y="1716" type="line"/>
    </contour>
  </outline>
</glyph>
<glyph name="zwnj.old" format="2">
  <advance width="1096"/>
  <outline>
    <component base="_part.zwpart" xOffset="452"/>
    <component base="_part.zwpart" xOffset="452" yOffset="390"/>
    <component base="_part.zwpart" xOffset="452" yOffset="780"/>
    <component base="_part.zwpart" xOffset="452" yOffset="1560"/>
    <component base="_part.zwpart" xOffset="452" yOffset="1950"/>
    <component base="_part.zwpart" xOffset="452" yOffset="1170"/>
    <contour>
      <point x="372" y="491" type="line"/>
      <point x="372" y="1009" type="line"/>
      <point x="40" y="750" type="line"/>
    </contour>
    <contour>
      <point x="724" y="491" type="line"/>
      <point x="1056" y="750" type="line"/>
      <point x="724" y="1009" type="line"/>
    </contour>
  </outline>
</glyph>
